<?xml version="1.0" encoding="UTF-8"?>
<!DOCTYPE svg PUBLIC "-//W3C//DTD SVG 1.1//EN" "http://www.w3.org/Graphics/SVG/1.1/DTD/svg11.dtd">
<svg xmlns="http://www.w3.org/2000/svg" version="1.1" width="128px" height="128px" style="shape-rendering:geometricPrecision; text-rendering:geometricPrecision; image-rendering:optimizeQuality; fill-rule:evenodd; clip-rule:evenodd" xmlns:xlink="http://www.w3.org/1999/xlink">
<g><path style="opacity:0.948" fill="#bde9fd" d="M 51.5,-0.5 C 59.5,-0.5 67.5,-0.5 75.5,-0.5C 103.14,6.47339 120.473,23.8067 127.5,51.5C 127.5,59.5 127.5,67.5 127.5,75.5C 120.411,103.588 102.745,120.922 74.5,127.5C 67.1667,127.5 59.8333,127.5 52.5,127.5C 24.2818,120.949 6.61511,103.615 -0.5,75.5C -0.5,67.5 -0.5,59.5 -0.5,51.5C 6.5,23.8333 23.8333,6.5 51.5,-0.5 Z"/></g>
<g><path style="opacity:1" fill="#465f7c" d="M 52.5,7.5 C 86.9038,4.76355 109.07,19.7636 119,52.5C 122.252,85.8654 108.086,107.699 76.5,118C 51.984,122.719 32.1507,115.219 17,95.5C 0.106809,65.1871 4.94014,39.0204 31.5,17C 38.2012,12.9431 45.2012,9.77643 52.5,7.5 Z"/></g>
<g><path style="opacity:1" fill="#0b9fe2" d="M 86.5,21.5 C 86.5,30.8333 86.5,40.1667 86.5,49.5C 78.483,45.1382 70.483,40.8049 62.5,36.5C 54.8361,31.332 46.8361,26.6653 38.5,22.5C 51.5776,13.8391 65.5776,12.3391 80.5,18C 83.0254,18.4238 85.0254,19.5905 86.5,21.5 Z"/></g>
<g><path style="opacity:1" fill="#7dd5fc" d="M 38.5,22.5 C 46.8361,26.6653 54.8361,31.332 62.5,36.5C 55.1667,41.1667 47.8333,45.8333 40.5,50.5C 32.0094,54.5782 23.6761,58.9116 15.5,63.5C 15.1555,45.2135 22.8222,31.5468 38.5,22.5 Z"/></g>
<g><path style="opacity:1" fill="#c33481" d="M 86.5,21.5 C 99.4213,27.9777 107.588,38.311 111,52.5C 111.499,56.1516 111.665,59.8183 111.5,63.5C 109.02,64.242 106.687,65.242 104.5,66.5C 105.373,49.9452 99.873,35.9452 88,24.5C 87.5001,41.8301 87.3334,59.1635 87.5,76.5C 87.1667,76.5 86.8333,76.5 86.5,76.5C 86.5,67.5 86.5,58.5 86.5,49.5C 86.5,40.1667 86.5,30.8333 86.5,21.5 Z"/></g>
<g><path style="opacity:1" fill="#fe3186" d="M 104.5,66.5 C 103.833,67.1667 103.167,67.8333 102.5,68.5C 97.5169,71.138 92.5169,73.8047 87.5,76.5C 87.3334,59.1635 87.5001,41.8301 88,24.5C 99.873,35.9452 105.373,49.9452 104.5,66.5 Z"/></g>
<g><path style="opacity:1" fill="#2d3e53" d="M 62.5,36.5 C 70.483,40.8049 78.483,45.1382 86.5,49.5C 86.5,58.5 86.5,67.5 86.5,76.5C 79.1667,81.1667 71.8333,85.8333 64.5,90.5C 56.517,86.1951 48.517,81.8618 40.5,77.5C 40.5,68.5 40.5,59.5 40.5,50.5C 47.8333,45.8333 55.1667,41.1667 62.5,36.5 Z"/></g>
<g><path style="opacity:1" fill="#aece6f" d="M 40.5,50.5 C 40.5,59.5 40.5,68.5 40.5,77.5C 40.5,87.1667 40.5,96.8333 40.5,106.5C 24.1715,96.8464 15.8382,82.513 15.5,63.5C 23.6761,58.9116 32.0094,54.5782 40.5,50.5 Z"/></g>
<g><path style="opacity:1" fill="#fb7168" d="M 111.5,63.5 C 111.327,81.5261 103.66,95.1927 88.5,104.5C 88.1667,104.5 87.8333,104.5 87.5,104.5C 92.2041,98.6083 96.3708,92.275 100,85.5C 101.474,80.91 102.641,76.2434 103.5,71.5C 103.48,70.2739 103.147,69.2739 102.5,68.5C 103.167,67.8333 103.833,67.1667 104.5,66.5C 106.687,65.242 109.02,64.242 111.5,63.5 Z"/></g>
<g><path style="opacity:1" fill="#fe9159" d="M 102.5,68.5 C 103.147,69.2739 103.48,70.2739 103.5,71.5C 102.641,76.2434 101.474,80.91 100,85.5C 96.3708,92.275 92.2041,98.6083 87.5,104.5C 79.6309,100.07 71.9642,95.4034 64.5,90.5C 71.8333,85.8333 79.1667,81.1667 86.5,76.5C 86.8333,76.5 87.1667,76.5 87.5,76.5C 92.5169,73.8047 97.5169,71.138 102.5,68.5 Z"/></g>
<g><path style="opacity:1" fill="#fcde7a" d="M 40.5,77.5 C 48.517,81.8618 56.517,86.1951 64.5,90.5C 71.9642,95.4034 79.6309,100.07 87.5,104.5C 87.8333,104.5 88.1667,104.5 88.5,104.5C 73.0359,114.066 57.0359,114.732 40.5,106.5C 40.5,96.8333 40.5,87.1667 40.5,77.5 Z"/></g>
</svg>
